{"title":"Sleepaway Camp 2 Unhappy Campers 1988 1080p fiveofseven zombiRG","uid":15232774,"size":2375825570,"categoryP":"video","categoryS":"hd___movies","magnet":"?xt=urn:btih:5e12eb0a2f8e2ca8567c455522d770cf42ab75a8&amp;dn=Sleepaway+Camp+2+Unhappy+Campers+1988+1080p+fiveofseven+zombiRG&amp;tr=udp%3A%2F%2Ftracker.leechers-paradise.org%3A6969&amp;tr=udp%3A%2F%2Fzer0day.ch%3A1337&amp;tr=udp%3A%2F%2Fopen.demonii.com%3A1337&amp;tr=udp%3A%2F%2Ftracker.coppersurfer.tk%3A6969&amp;tr=udp%3A%2F%2Fexodus.desync.com%3A6969","seeders":1,"leechers":0,"uploader":"fiveofseven","files":3,"time":1467845071,"description":"\nPLOT - Angela, supposedly reformed and living under an assumed\r\nsurname, is working at a summer camp. However, when the\r\ncampers start misbehaving, she soon reverts to her old ways.\r\n\r\n\r\nINFO\r\n\r\nEncoder: fiveofseven\r\nSource: Blu-Ray\r\nRating: R \r\nGenre: Comedy, Horror\r\nSubtitles: English\r\nPoster: \r  https://yuq.me/users/25/564/pS8KLVIJ0B.jpg \r\n\r\nGeneral\r\nComplete name                            : Sleepaway Camp 2 Unhappy Campers 1080p (fiveofseven zombiRG).mp4\r\nFormat                                   : MPEG-4\r\nFormat profile                           : Base Media\r\nCodec ID                                 : isom\r\nFile size                                : 2.20 GiB\r\nDuration                                 : 1h 20mn\r\nOverall bit rate mode                    : Variable\r\nOverall bit rate                         : 3 928 Kbps\r\nEncoded date                             : UTC 2016-01-15 13:40:07\r\nTagged date                              : UTC 2016-03-27 19:06:03\r\nWriting application                      : My MP4Box GUI 0.6.0.6 &lt;http://my-mp4box-gui.zymichost.com&gt;\r\n\r\nVideo\r\nID                                       : 1\r\nFormat                                   : AVC\r\nFormat/Info                              : Advanced Video Codec\r\nFormat profile                           :   \r\nFormat settings, CABAC                   : Yes\r\nFormat settings, ReFrames                : 7 frames\r\nCodec ID                                 : avc1\r\nCodec ID/Info                            : Advanced Video Coding\r\nDuration                                 : 1h 20mn\r\nBit rate                                 : 3 800 Kbps\r\nMaximum bit rate                         : 14.9 Mbps\r\nWidth                                    : 1 912 pixels\r\nHeight                                   : 1 040 pixels\r\nDisplay aspect ratio                     : 1.85:1\r\nFrame rate mode                          : Constant\r\nFrame rate                               : 23.976 fps\r\nColor space                              : YUV\r\nChroma subsampling                       : 4:2:0\r\nBit depth                                : 8 bits\r\nScan type                                : Progressive\r\nBits/(Pixel*Frame)                       : 0.080\r\nStream size                              : 2.12 GiB (97%)\r\nTitle                                    : 1080p.mp4\r\nWriting library                          : x264 core 146 r2538 121396c\r\nLanguage                                 : English\r\nEncoded date                             : UTC 2016-01-15 06:22:57\r\nTagged date                              : UTC 2016-01-15 13:41:36\r\n\r\nAudio\r\nID                                       : 2\r\nFormat                                   : AAC\r\nFormat/Info                              : Advanced Audio Codec\r\nFormat profile                           : LC\r\nCodec ID                                 : 40\r\nDuration                                 : 1h 20mn\r\nBit rate mode                            : Variable\r\nBit rate                                 : 128 Kbps\r\nMaximum bit rate                         : 135 Kbps\r\nChannel count                            : 2 channels\r\nChannel positions                        : Front: L R\r\nSampling rate                            : 48.0 KHz\r\nCompression mode                         : Lossy\r\nStream size                              : 73.4 MiB (3%)\r\nTitle                                    : DTS to aac.mp4\r\nLanguage                                 : English\r\nEncoded date                             : UTC 2016-01-15 13:41:31\r\nTagged date                              : UTC 2016-01-15 13:41:36\r\n\r\n\r\nScreenshots - \r\n  \nhttps://yuq.me/users/25/564/IuXRgSGeUt.jpg \r\n  \nhttps://yuq.me/users/25/564/mNh69LJF1Y.jpg \r\n  \nhttps://yuq.me/users/25/564/ibGaV83DjF.jpg \r\n  \nhttps://yuq.me/users/25/564/aqeuY9CQWF.jpg \r\n \r\nsignature \r\n  \nhttps://yuq.me/users/25/564/aegRQCBILx.png","torrent":{"xt":"urn:btih:5e12eb0a2f8e2ca8567c455522d770cf42ab75a8","amp;dn":"Sleepaway+Camp+2+Unhappy+Campers+1988+1080p+fiveofseven+zombiRG","amp;tr":["udp%3A%2F%2Ftracker.leechers-paradise.org%3A6969","udp%3A%2F%2Fzer0day.ch%3A1337","udp%3A%2F%2Fopen.demonii.com%3A1337","udp%3A%2F%2Ftracker.coppersurfer.tk%3A6969","udp%3A%2F%2Fexodus.desync.com%3A6969"],"infoHash":"5e12eb0a2f8e2ca8567c455522d770cf42ab75a8","infoHashBuffer":{"type":"Buffer","data":[94,18,235,10,47,142,44,168,86,124,69,85,34,215,112,207,66,171,117,168]},"announce":[],"urlList":[]}}